<svg xmlns="http://www.w3.org/2000/svg" viewBox="0 0 30 30" width="60" height="60" fill="currentColor">
  <path d="m 23.786475,0.6758 c -0.40128,0.017 -0.82113,0.127 -1.14315,0.2582 l -10.92359,4.3328 c -0.65101,0.4085 -1.04868,0.9851 -0.95877,1.8874 l 0,10.7577 c -0.50459,-0.212 -1.05937,-0.3303 -1.64097,-0.3303 -2.34136,0 -4.23902,1.8994 -4.23902,4.2407 0,2.3416 1.89766,4.2392 4.23902,4.2392 2.17558,0 3.96756,-1.6392 4.21054,-3.7496 l 0.12236,-14.8498 9.00438,-3.5886 0,9.5373 c -0.49603,-0.2036 -1.03974,-0.3167 -1.60912,-0.3167 -2.34137,0 -4.23903,1.8994 -4.23903,4.2407 0,2.3414 1.89766,4.239 4.23903,4.239 2.27777,0 4.13641,-1.7964 4.23567,-4.0497 0.003,0 0.0352,-0.017 0.0352,-0.017 l 0,-0.8967 -0.0318,-14.5123 c -0.0166,-1.1309 -0.63191,-1.4443 -1.3007,-1.4349 z"/>
</svg>
