<svg version="1.1" xmlns="http://www.w3.org/2000/svg" viewBox="268 210 479 606" width="1024" height="1024">
  <path fill="rgb(254,254,254)" d="M 298.057 407.719 C 301.293 409.329 411.309 522.66 420.151 531.92 L 420.107 566.795 C 420.091 597.285 420.721 630.115 443.684 653.59 C 461.272 671.565 487.011 676.09 511.115 676.04 C 535.735 675.99 562.375 670.555 580.135 652.175 C 603.57 627.93 603.935 596.63 603.945 565.62 L 603.925 526.04 C 610.23 518.89 618.9 510.315 625.61 503.285 L 665.675 461.233 L 697.105 428.197 C 703.47 421.52 710.41 413.946 717.095 407.732 C 716.655 420.257 716.95 434.409 716.95 447.035 L 716.955 518.625 L 716.97 565.035 C 716.855 625.61 710.35 691.04 665.17 736.225 C 623.765 777.335 562.455 786.295 506.98 786.01 C 425.3 785.595 346.168 761.335 314.85 678.11 C 295.003 625.365 297.995 575.975 297.981 520.885 L 298.057 407.719 z"/>
  <path fill="rgb(254,254,254)" d="M 500.825 240.214 C 582.515 235.534 670.31 268.834 728.01 326.839 L 703.7 350.553 C 653.365 303.458 597.82 278.312 528.58 274.055 C 516.905 273.857 503.985 273.688 491.389 274.633 C 429.212 279.428 369.739 306.305 324.391 350.552 L 299.942 326.756 C 355.955 271.901 423.445 245.483 500.825 240.214 z"/>
  <path fill="rgb(254,254,254)" d="M 498.513 320.207 C 503.34 319.69 512.77 319.848 517.725 319.862 C 572.48 320.013 630.825 343.776 669.48 382.818 C 661.27 390.217 652.905 398.781 644.999 406.587 C 613.52 375.247 573.41 358.490 529.62 354.091 C 525.435 353.891 521.245 353.735 517.055 353.621 C 467.052 352.517 418.718 371.627 382.989 406.626 C 375.516 399.042 366.442 389.837 358.609 382.806 C 364.747 376.379 375.37 367.703 382.611 362.462 C 418.756 336.300 454.637 324.456 498.513 320.207 z"/>
  <path fill="rgb(254,254,254)" d="M 511.46 401.217 C 511.995 401.200 512.535 401.189 513.07 401.185 C 549.45 400.722 584.515 414.793 610.485 440.279 C 602.345 448.111 594.26 455.999 586.23 463.945 C 565.14 445.434 545.945 436.205 517.45 434.878 C 485.305 434.737 465.563 443.434 441.742 463.959 C 433.74 455.982 425.673 448.070 417.541 440.225 C 442.367 414.823 476.482 402.645 511.46 401.217 z"/>
</svg>
